<svg width="32" height="32" viewBox="0 0 32 32" fill="none" xmlns="http://www.w3.org/2000/svg">
<rect width="32" height="32" rx="4" fill="white"/>
<g clip-path="url(#clip0_683_45530)">
<path d="M9.35565 10.8674H13.1112V7.03369V3.19995H9.35565H5.6001V7.03369H9.35565V10.8674Z" fill="black"/>
<path d="M21.0258 15.687V15.085C24.7062 14.5599 25.6638 12.0754 25.6638 9.63135C25.6638 6.60556 23.6377 3.33335 18.6237 3.21216H15.6121V7.03378H18.6237C21.2711 7.07821 21.8331 8.83147 21.7896 10.2131C21.6985 13.3075 20.3372 13.3964 17.9944 13.4651H9.35547V28.8H18.3348C24.3737 28.8 26.3999 25.3056 26.3999 21.6577C26.3999 18.539 25.3314 16.2485 21.0258 15.6829V15.687ZM18.4456 24.938H13.1783V17.1938H18.4456C21.6273 17.1938 22.6523 17.8078 22.6523 21.1285C22.6523 23.92 21.6273 24.934 18.4456 24.934V24.938Z" fill="black"/>
</g>
<defs>
<clipPath id="clip0_683_45530">
<rect width="20.8" height="25.6" fill="white" transform="translate(5.6001 3.19995)"/>
</clipPath>
</defs>
</svg>
